<?xml version="1.0" ?>
<svg xmlns="http://www.w3.org/2000/svg" viewBox="0 0 32 32">
  <g id="_99_link-external-01" data-name="99 link-external-01">
    <path d="M23.78,27H8.22A3.23,3.23,0,0,1,5,23.78V8.22A3.23,3.23,0,0,1,8.22,5h4.46V7H8.22A1.22,1.22,0,0,0,7,8.22V23.78A1.22,1.22,0,0,0,8.22,25H23.78A1.22,1.22,0,0,0,25,23.78V19.5h2v4.28A3.23,3.23,0,0,1,23.78,27Z" fill="#ffffff"/>
    <path d="M27,14.89H25V7H17.11V5H25a2,2,0,0,1,2,2Z" fill="#ffffff"/>
    <rect x="14.06" y="10.33" width="13.22" height="2" transform="translate(-1.95 17.94) rotate(-45)" fill="#ffffff"/>
  </g>
</svg>
